<svg xmlns="http://www.w3.org/2000/svg" viewBox="0 0 679 678.86"><defs><style>.cls-1{fill:#fffee1;}.cls-2{fill:#131313;}.cls-3{stroke:#131313;}</style></defs><g id="Layer_2" data-name="Layer 2"><g id="Layer_6" data-name="Layer 6"><circle class="cls-1" cx="339.5" cy="339.48" r="329.5"/><path class="cls-2" d="M659,339.48A319.44,319.44,0,0,1,252,646.85C189.78,629.19,134.13,592.4,92.88,542.7a319.57,319.57,0,0,1-26.57-369A323,323,0,0,1,208.1,48.11C268.44,20.62,337.81,13,402.75,26.22A318.64,318.64,0,0,1,659,339.48c0,12.87,20,12.9,20,0-.15-70.12-21.91-139.59-62.79-196.67A343.48,343.48,0,0,0,455.88,20.49c-66.57-24.48-141-27-209.22-7.65A339.7,339.7,0,0,0,49,515.35c35.17,57.9,87.82,105.07,149.56,133A343.21,343.21,0,0,0,408.06,672c67-13.59,129.29-48.29,176.53-97.62,47.73-49.85,80-114.17,90.31-182.47a354.43,354.43,0,0,0,4.1-52.46C679,326.61,659,326.59,659,339.48Z"/></g><g id="Layer_9" data-name="Layer 9"><path class="cls-2" d="M409.09,599.29c-2.56,5.66-3.18,12.13-8.95,15.46-6.63,3.83-14.65,4.64-21.76,7.3-12.18,4.57-21.81,14.89-35.46,15.26-6.42.17-6.45,10.17,0,10,8-.22,15.31-2.87,22.26-6.71,6.31-3.49,12-7.73,18.92-10,8-2.55,16.76-3.9,23.7-8.93,6.11-4.44,7-10.94,9.93-17.38,2.63-5.82-6-10.91-8.64-5.05Z"/><path class="cls-2" d="M393.46,400.52c18.69,15.91,36.92,33.33,48.56,55.24,6.87,12.93,11.13,27.9,8.42,42.58-3.09,16.76-10.89,32.11-18.77,47-9.41,17.81-18.43,35.67-23.49,55.27-1.61,6.24,8,8.9,9.64,2.66,4.8-18.55,13.23-35.38,22.14-52.24,8.09-15.31,16-31,19.69-48,6.84-31.37-11-60.72-31.24-83.16a291.67,291.67,0,0,0-27.88-26.46c-4.87-4.15-12,2.89-7.07,7.07Z"/><path class="cls-2" d="M390.82,447.65c-14.91-72.31-19.85-150.71,5.79-221.29,12.71-35,33.7-67.73,63.19-90.89,1-.76-.16.1,1.13-.87l1.75-1.3c1.08-.78,2.16-1.55,3.26-2.31,1.75-1.2,3.54-2.37,5.36-3.47q2.44-1.5,5-2.81c5.72-2.95.67-11.58-5.05-8.64-18.26,9.42-34.05,24.65-46.86,40.45-34,41.89-50,95-54.37,148.15-4.05,48.73,1.33,97.9,11.17,145.64,1.29,6.3,10.94,3.64,9.64-2.66Z"/><path class="cls-2" d="M475.09,125.21c2.32-.87,5.81-2.39,8.21-1.67.52.16.84,1.29.94,3.1.27,5.33-1.81,10.92-3.43,15.91a216.25,216.25,0,0,0-7.91,34.69c-5.38,35.5-7.71,71.38-11.26,107.08-.64,6.39-1.28,12.78-2.15,19.14A53,53,0,0,1,457,314.25c-2.51,5.88-7,10.47-11.47,13.84-13.2,10.07-26.84,17.94-36.8,31.7-21.51,29.68-23.61,71-23.68,106.19,0,6.44,10,6.45,10,0,.06-32.89,1.74-70.87,20.88-99.11,9.63-14.2,23.28-21.19,36.41-31.49,5.55-4.37,10.37-9.58,13.3-16.09,4.54-10.08,4.74-22,5.83-32.83,3.69-36.44,5.83-73.15,11.55-109.35a202.5,202.5,0,0,1,4.69-23c1.51-5.39,3.53-10.62,4.92-16.05,1.5-5.9,3.07-13.43-.16-19.06-4.21-7.34-13.32-5.91-20-3.4-6,2.24-3.39,11.91,2.65,9.64Z"/><path class="cls-2" d="M393.52,503.44c14.75-11,28.13-24,34.49-41.61,2.91-8.05,3.15-19.16,10.51-24.53,5.15-3.75.17-12.43-5-8.63-8.92,6.51-10.67,15.83-13.59,25.83-5,17.18-17.32,29.8-31.41,40.3-5.1,3.8-.12,12.49,5,8.64Z"/><path class="cls-2" d="M433.47,428.67c-13.92,6.06-28.59,13.34-37,26.56-8.2,12.82-9.25,29.14-10.43,43.89-.52,6.41,9.49,6.38,10,0,1-13,1.83-27.54,9.07-38.85,7.4-11.57,21.35-17.69,33.45-23,5.89-2.56.8-11.18-5-8.63Z"/><path class="cls-2" d="M436,438c6.43,0,6.44-10,0-10s-6.45,10,0,10Z"/><path class="cls-2" d="M435.32,437.81c29.47-9,58.71-20.41,80.3-43.26,24-25.41,40.92-61.63,39.79-97-.47-14.77-4-29.22-9.49-42.91-4.48-11.3-9.49-22.13-17.06-31.7C510.15,199.3,483,181.81,456.33,168.5c-38.12-19-80.55-30.82-123.33-30.52-6.43.05-6.45,10.05,0,10,36-.25,71.93,8.4,104.84,22.85,27.56,12.11,54.71,28.18,75.8,49.93,16.65,17.17,26.8,40.9,30.6,64.39,5.42,33.54-8,68.08-28.64,94.19-21.07,26.6-51.32,39.19-82.93,48.82-6.14,1.87-3.53,11.53,2.65,9.65Z"/><path class="cls-2" d="M436,438c6.43,0,6.44-10,0-10s-6.45,10,0,10Z"/><path class="cls-2" d="M432.73,203.87c-9.75,20.66-8.27,48.93,10.42,64.32,24,19.77,54,1.55,71.71-17.59,21.86-23.65,36.47-53.47,48.86-82.88,2.49-5.92-7.18-8.51-9.64-2.66-10.51,25-22.88,50.11-40,71.25-9.42,11.58-21.09,23.53-35.58,28.46-9.24,3.14-18.25,2.83-26.13-2.18-7-4.47-11.92-12.39-14.16-20.85a48.44,48.44,0,0,1,3.19-32.82c2.74-5.79-5.88-10.87-8.63-5Z"/><path class="cls-2" d="M371,630c-.72-6.11.85-12.08,2.29-18,2.3-9.54,5.08-18.95,7.59-28.43,7-26.33,12.16-53.15,13.36-80.42a285.77,285.77,0,0,0-3.42-57.62c-1-6.33-10.65-3.64-9.64,2.66,5,31.51,4.14,63.67-1.43,95-3.9,22-10.45,43.24-15.81,64.89-1.72,7-3.8,14.66-2.94,21.9.74,6.31,10.75,6.39,10,0Z"/><path class="cls-2" d="M437.79,584.93l26.4,13.61c5.71,2.94,10.78-5.69,5.05-8.64l-26.4-13.6c-5.71-2.95-10.78,5.68-5,8.63Z"/><path class="cls-2" d="M461.43,557.73l26.39,13.61c5.72,2.94,10.78-5.68,5.05-8.64l-26.4-13.6c-5.71-3-10.77,5.68-5,8.63Z"/><path class="cls-2" d="M180.86,119.22c63.67-36.77,137.14-56,210.4-42.33a298.86,298.86,0,0,1,56.87,16.83c6,2.41,8.56-7.26,2.66-9.64A291.92,291.92,0,0,0,345.87,62.37c-36.82-.55-73.55,6.36-108.08,19a395.18,395.18,0,0,0-62,29.24c-5.57,3.22-.54,11.86,5,8.63Z"/><path class="cls-2" d="M265.19,604.72c2.91,6.44,3.81,12.94,9.93,17.38,6.93,5,15.72,6.38,23.7,8.93,6.93,2.22,12.61,6.46,18.92,10,6.95,3.84,14.26,6.49,22.25,6.71,6.44.17,6.44-9.83,0-10-13.63-.37-23.28-10.69-35.46-15.26-7.1-2.66-15.12-3.48-21.75-7.3-5.77-3.32-6.4-9.81-9-15.46-2.64-5.85-11.26-.77-8.63,5.05Z"/><path class="cls-2" d="M282.38,393.83c-19.77,16.83-39.13,35.58-51,59-7,13.74-11.15,29.09-9.14,44.57,2.22,17,9.84,33.13,17.68,48.22,9.82,18.87,19.84,37.31,25.2,58.05,1.61,6.23,11.25,3.59,9.64-2.66-4.5-17.41-12.05-33.58-20.4-49.43-7.76-14.73-15.81-29.4-20.16-45.58-8.25-30.73,8.8-58.54,29-80.46a301.17,301.17,0,0,1,26.23-24.66c4.91-4.18-2.19-11.22-7.07-7.07Z"/><path class="cls-2" d="M301.74,450.69c15.25-74,20.45-154.39-5.79-226.61-13.28-36.52-34.92-71.1-65.76-95.3a118.07,118.07,0,0,0-18.52-12.33c-5.71-2.94-10.77,5.68-5,8.64,17.4,9,31.23,22.32,44,37.9,32.69,39.8,48,91.42,52.24,142.06,4,47.87-1.15,96.08-10.81,143-1.3,6.29,8.34,9,9.64,2.66Z"/><path class="cls-2" d="M210.48,116c-5.95-2.24-13.72-3.83-18.59,1.47-4,4.43-3.46,11.15-2.51,16.6,1.92,11,6.51,21.5,8.66,32.56,6.9,35.51,8.89,72,12.26,108,1.2,12.79,1.41,26.66,4.83,39.11a40.11,40.11,0,0,0,11.62,18.84c11.84,10.93,25.89,17,36.29,29.43,8.53,10.19,13.82,22.77,17.34,35.47,6.2,22.37,7.49,45.87,7.54,69,0,6.44,10,6.45,10,0-.07-33.22-2.11-70.38-19.47-99.76-9.19-15.54-22.66-25.24-37.14-35.33-4.72-3.29-10-7.52-12.89-12-4.45-6.91-5.1-15.59-6.08-24.35-3.88-34.88-6-69.94-10.57-104.76-1.94-14.8-4-29.78-8.62-44-1.81-5.58-4.06-11.36-4.43-17.26a16.49,16.49,0,0,1,.45-4.65c2.05-1.36,6.44.58,8.65,1.41,6,2.27,8.64-7.39,2.66-9.64Z"/><path class="cls-2" d="M294.44,495.18c-14.08-10.5-26.38-23.12-31.4-40.3-2.93-10-4.67-19.32-13.6-25.83-5.2-3.8-10.2,4.87-5.05,8.63,7.37,5.38,7.6,16.48,10.51,24.53,6.38,17.63,19.74,30.61,34.49,41.61,5.17,3.84,10.16-4.83,5.05-8.64Z"/><path class="cls-2" d="M244.39,437.68c12.12,5.28,26,11.4,33.46,23,7.24,11.3,8,25.86,9.07,38.85.51,6.37,10.51,6.42,10,0-1.18-14.74-2.22-31.08-10.43-43.89-8.47-13.21-23.11-20.49-37.05-26.56-5.84-2.55-10.94,6.06-5.05,8.63Z"/><path class="cls-2" d="M246.92,438.36c6.43,0,6.44-10,0-10s-6.45,10,0,10Z"/><path class="cls-2" d="M250.25,428.54c-27.41-8.35-54.66-18.7-75-39.73-23-23.76-39-58.16-37.74-91.55.94-23.88,10.46-49.56,24.54-68.86,15.68-21.5,38-38.4,61.05-51.28,33.49-18.7,71.38-29,109.8-28.76,6.43,0,6.44-10,0-10-36.32-.25-72.17,8.61-104.64,24.75-26.27,13-51.41,31-70,53.94-16.08,19.83-26.86,45.68-30,71-4.4,35.56,10,71.21,31.94,98.75,22.14,27.85,54.2,41.3,87.35,51.4,6.17,1.87,8.81-7.77,2.66-9.65Z"/><path class="cls-2" d="M246.92,438.36c6.43,0,6.44-10,0-10s-6.45,10,0,10Z"/><path class="cls-2" d="M241.55,209.3c8.13,17.22,6.13,40.2-8.85,52.2-6.47,5.18-15.51,6.9-24.19,4.83-14-3.34-25.5-13.59-34.84-24-19.79-22.1-33.41-49.76-44.83-76.87-2.46-5.84-12.14-3.27-9.64,2.66,11.37,27,24.6,53.82,43.35,76.56,10.69,13,24.1,25.47,40.51,30.55,23.55,7.27,45.22-7.38,51.33-30.43,3.6-13.58,1.75-27.92-4.2-40.53-2.75-5.81-11.37-.74-8.64,5.05Z"/><path class="cls-2" d="M321.92,630.33c.73-6.19-.79-12.7-2.18-18.7-2.1-9.11-4.76-18.09-7.18-27.11-6.94-25.78-12.36-51.92-13.77-78.64a274.11,274.11,0,0,1,2.95-57.38c1-6.29-8.63-9-9.64-2.66a299.12,299.12,0,0,0,.7,96.15c3.75,22.74,10.31,44.71,16,67,1.78,6.94,4,14.18,3.12,21.34-.76,6.38,9.25,6.32,10,0Z"/><path class="cls-2" d="M240.08,576.68l-26.4,13.6c-5.72,3-.67,11.58,5,8.64l26.39-13.61c5.73-2.95.67-11.58-5-8.63Z"/><path class="cls-2" d="M216.44,549.48,190,563.08c-5.72,2.95-.67,11.59,5.05,8.64l26.4-13.61c5.72-3,.67-11.58-5.05-8.63Z"/><path class="cls-2" d="M507.1,111c-65.64-37.92-141-57.32-216.48-43.64a297.88,297.88,0,0,0-58.49,17.13c-5.9,2.38-3.32,12.05,2.65,9.64,32.31-13,66.56-20.72,101.44-21.34,35.67-.64,71,5.95,104.54,18a379.84,379.84,0,0,1,61.29,28.85c5.58,3.23,10.63-5.41,5.05-8.63Z"/><path class="cls-2" d="M303.72,632.41c12.22,5.89,22.08,14.51,36.35,14.9,6.44.17,6.44-9.83,0-10-12.13-.33-20.91-8.52-31.31-13.53-5.77-2.78-10.85,5.84-5,8.63Z"/><path class="cls-2" d="M297,454c6.43,0,6.44-10,0-10s-6.45,10,0,10Z"/><path class="cls-2" d="M307,394c6.43,0,6.44-10,0-10s-6.45,10,0,10Z"/><path class="cls-2" d="M293,471c6.43,0,6.44-10,0-10s-6.45,10,0,10Z"/><path class="cls-2" d="M448.39,94c44.62,17,85.79,43.56,115.75,81.16,24.66,31,40.19,68.43,46.12,107.46a250.55,250.55,0,0,1,2,54.87c-1.23,17.65-5,34.61-8.88,51.75-2.07,9.08-5,18.8-11.48,25.79-5.39,5.81-12.58,8.71-20.2,10.36-18,3.89-37.41,3-55.7,2.9-25.51-.1-51-.28-76.53-.28h-3c-6.44,0-6.45,10,0,10,23.8,0,47.66-.45,71.45.18,18.89.5,38.37.74,57.15-1.64,18.53-2.34,34.34-9.61,42.34-27.43,4.42-9.82,6.29-19.72,8.55-29.44a270.25,270.25,0,0,0,4.84-27.25,258.93,258.93,0,0,0,1-57.23c-3.84-40.53-17.33-80-40.52-113.61-27.51-39.83-66.93-69.64-110.9-89.27q-9.54-4.25-19.32-8c-6-2.3-8.62,7.36-2.66,9.64Z"/><path class="cls-2" d="M322,630c.73-6.19-.79-12.7-2.18-18.7-2.1-9.11-4.76-18.09-7.18-27.11-6.94-25.78-12.36-51.92-13.77-78.64a274.11,274.11,0,0,1,2.95-57.38c1-6.29-8.63-9-9.64-2.66a299.12,299.12,0,0,0,.7,96.15c3.75,22.74,10.31,44.71,16,67,1.78,6.94,4,14.18,3.12,21.34-.76,6.38,9.25,6.32,10,0Z"/><path class="cls-2" d="M310.57,394.75c20.1-8,41.36-9.59,61.4-.5,5.82,2.63,10.91-6,5-8.64-22.49-10.2-46.34-9.59-69.11-.5-5.91,2.35-3.33,12,2.66,9.64Z"/><path class="cls-2" d="M229.27,95.15c6.44,0,6.45-10,0-10s-6.44,10,0,10Z"/><path class="cls-2" d="M231.94,84.33c-46.36,17.7-89.46,45-120.53,84.21A236.86,236.86,0,0,0,63,280.46,262.35,262.35,0,0,0,60.73,338c1.35,18.76,5.43,38.14,9.53,55.26,4.56,19.07,14.33,35,34,40.67,18.14,5.25,38.32,4.3,57,4.35,27.32.07,54.67-.28,82-.28h3.24c6.43,0,6.44-10,0-10-22.79,0-45.69-.72-68.46.07a461.75,461.75,0,0,1-52.48-.75c-8.63-.69-17.86-1.73-25.69-5.71-7.24-3.68-12.14-9.71-15.46-17-4-8.81-5.72-18.67-7.88-28A247.92,247.92,0,0,1,72,350.87a259.82,259.82,0,0,1-.88-54.63,229.83,229.83,0,0,1,38.59-108.66c26.12-38.24,64-66.66,105.89-85.71,6.25-2.84,12.6-5.45,19-7.9,6-2.27,3.37-12-2.66-9.64Z"/></g><g id="Layer_5" data-name="Layer 5"><path class="cls-3" d="M305.42,76a7.4,7.4,0,0,1,6.28-7.3,147.91,147.91,0,0,1,22.11-1.6c15.81,0,26,3.44,33.15,11.13,5.78,6.07,9,15.38,9,25.9,0,18-9.52,29.95-21.59,34.8v.61c8.84,3.64,14.11,13.35,16.83,27.52,2.33,11.89,4.27,21.48,6,28.29a7.37,7.37,0,0,1-7.17,9.14h0A7.38,7.38,0,0,1,362.9,199c-1.6-5.84-3.53-15.18-5.8-27.12-3.4-18.82-9.52-25.91-23-26.51h-6.56a7.37,7.37,0,0,0-7.38,7.38V197.1a7.38,7.38,0,0,1-7.38,7.38h0a7.37,7.37,0,0,1-7.38-7.38Zm14.79,48.67c0,4.08-.79,11.82,3.29,11.82h12c15.81,0,25.68-14.76,25.68-30.34,0-17.6-10.71-25.29-26.35-25.5a80.39,80.39,0,0,0-8.07.39,7.36,7.36,0,0,0-6.55,7.34Z"/></g></g></svg>